<mxfile host="Electron" agent="Mozilla/5.0 (X11; Linux x86_64) AppleWebKit/537.36 (KHTML, like Gecko) draw.io/26.0.16 Chrome/132.0.6834.196 Electron/34.2.0 Safari/537.36" version="26.0.16">
  <diagram name="Страница — 1" id="rIVa3ztGT4koFYz-0Olj">
    <mxGraphModel dx="2195" dy="838" grid="1" gridSize="10" guides="1" tooltips="1" connect="1" arrows="1" fold="1" page="1" pageScale="1" pageWidth="827" pageHeight="1169" math="0" shadow="0">
      <root>
        <mxCell id="0" />
        <mxCell id="1" parent="0" />
        <mxCell id="Om9Eq3zTbw2IkhIUX69M-1" value="" style="verticalLabelPosition=bottom;verticalAlign=top;html=1;shadow=0;strokeWidth=1;shape=mxgraph.android.phone2;strokeColor=#000000;textShadow=0;labelBorderColor=none;labelBackgroundColor=none;fontStyle=1;whiteSpace=wrap;" parent="1" vertex="1">
          <mxGeometry x="-160" y="195" width="200" height="390" as="geometry" />
        </mxCell>
        <mxCell id="Om9Eq3zTbw2IkhIUX69M-2" value="&lt;font face=&quot;Times New Roman&quot; style=&quot;font-size: 16px;&quot;&gt;&lt;i&gt;Telegram Server&lt;/i&gt;&lt;/font&gt;" style="rounded=1;whiteSpace=wrap;html=1;" parent="1" vertex="1">
          <mxGeometry x="160" y="195" width="200" height="390" as="geometry" />
        </mxCell>
        <mxCell id="Om9Eq3zTbw2IkhIUX69M-7" style="edgeStyle=orthogonalEdgeStyle;rounded=0;orthogonalLoop=1;jettySize=auto;html=1;entryX=0;entryY=0.5;entryDx=0;entryDy=0;" parent="1" source="Om9Eq3zTbw2IkhIUX69M-5" target="Om9Eq3zTbw2IkhIUX69M-2" edge="1">
          <mxGeometry relative="1" as="geometry" />
        </mxCell>
        <mxCell id="Om9Eq3zTbw2IkhIUX69M-8" style="edgeStyle=orthogonalEdgeStyle;rounded=0;orthogonalLoop=1;jettySize=auto;html=1;" parent="1" source="Om9Eq3zTbw2IkhIUX69M-5" target="Om9Eq3zTbw2IkhIUX69M-1" edge="1">
          <mxGeometry relative="1" as="geometry" />
        </mxCell>
        <mxCell id="Om9Eq3zTbw2IkhIUX69M-5" value="&lt;font style=&quot;&quot;&gt;HTTP&lt;/font&gt;" style="rounded=1;whiteSpace=wrap;html=1;align=center;verticalAlign=middle;" parent="1" vertex="1">
          <mxGeometry x="70" y="380" width="60" height="20" as="geometry" />
        </mxCell>
        <mxCell id="Om9Eq3zTbw2IkhIUX69M-11" value="Telegram Bot" style="text;html=1;align=center;verticalAlign=middle;resizable=0;points=[];autosize=1;strokeColor=none;fillColor=none;fontSize=16;fontFamily=Times New Roman;fontStyle=2" parent="1" vertex="1">
          <mxGeometry x="-120" y="375" width="110" height="30" as="geometry" />
        </mxCell>
        <mxCell id="Om9Eq3zTbw2IkhIUX69M-14" value="Frontend" style="text;html=1;align=center;verticalAlign=middle;resizable=0;points=[];autosize=1;strokeColor=none;fillColor=none;fontFamily=Times New Roman;fontSize=16;fontStyle=2" parent="1" vertex="1">
          <mxGeometry x="-105" y="350" width="80" height="30" as="geometry" />
        </mxCell>
        <mxCell id="Om9Eq3zTbw2IkhIUX69M-15" value="&lt;font face=&quot;Times New Roman&quot; style=&quot;font-size: 16px;&quot;&gt;&lt;i&gt;Backend/Server&lt;/i&gt;&lt;/font&gt;" style="rounded=1;whiteSpace=wrap;html=1;" parent="1" vertex="1">
          <mxGeometry x="480" y="195" width="320" height="390" as="geometry" />
        </mxCell>
        <mxCell id="Om9Eq3zTbw2IkhIUX69M-16" style="edgeStyle=orthogonalEdgeStyle;rounded=0;orthogonalLoop=1;jettySize=auto;html=1;entryX=0;entryY=0.5;entryDx=0;entryDy=0;" parent="1" source="Om9Eq3zTbw2IkhIUX69M-17" target="Om9Eq3zTbw2IkhIUX69M-15" edge="1">
          <mxGeometry relative="1" as="geometry" />
        </mxCell>
        <mxCell id="Om9Eq3zTbw2IkhIUX69M-18" style="edgeStyle=orthogonalEdgeStyle;rounded=0;orthogonalLoop=1;jettySize=auto;html=1;entryX=1;entryY=0.5;entryDx=0;entryDy=0;" parent="1" source="Om9Eq3zTbw2IkhIUX69M-17" target="Om9Eq3zTbw2IkhIUX69M-2" edge="1">
          <mxGeometry relative="1" as="geometry" />
        </mxCell>
        <mxCell id="Om9Eq3zTbw2IkhIUX69M-17" value="&lt;font style=&quot;&quot;&gt;HTTP&lt;/font&gt;" style="rounded=1;whiteSpace=wrap;html=1;align=center;verticalAlign=middle;" parent="1" vertex="1">
          <mxGeometry x="390" y="380" width="60" height="20" as="geometry" />
        </mxCell>
        <mxCell id="Om9Eq3zTbw2IkhIUX69M-19" value="&lt;font style=&quot;font-size: 16px;&quot; face=&quot;Times New Roman&quot;&gt;&lt;i style=&quot;&quot;&gt;PostgreSQL&lt;/i&gt;&lt;/font&gt;" style="shape=cylinder3;whiteSpace=wrap;html=1;boundedLbl=1;backgroundOutline=1;size=15;" parent="1" vertex="1">
          <mxGeometry x="920" y="260" width="220" height="240" as="geometry" />
        </mxCell>
        <mxCell id="Om9Eq3zTbw2IkhIUX69M-22" style="edgeStyle=orthogonalEdgeStyle;rounded=0;orthogonalLoop=1;jettySize=auto;html=1;entryX=1;entryY=0.5;entryDx=0;entryDy=0;" parent="1" source="Om9Eq3zTbw2IkhIUX69M-20" target="Om9Eq3zTbw2IkhIUX69M-15" edge="1">
          <mxGeometry relative="1" as="geometry" />
        </mxCell>
        <mxCell id="Om9Eq3zTbw2IkhIUX69M-20" value="TCP / IP" style="rounded=1;whiteSpace=wrap;html=1;align=center;verticalAlign=middle;" parent="1" vertex="1">
          <mxGeometry x="830" y="380" width="60" height="20" as="geometry" />
        </mxCell>
        <mxCell id="Om9Eq3zTbw2IkhIUX69M-23" style="edgeStyle=orthogonalEdgeStyle;rounded=0;orthogonalLoop=1;jettySize=auto;html=1;entryX=0.015;entryY=0.542;entryDx=0;entryDy=0;entryPerimeter=0;" parent="1" source="Om9Eq3zTbw2IkhIUX69M-20" target="Om9Eq3zTbw2IkhIUX69M-19" edge="1">
          <mxGeometry relative="1" as="geometry" />
        </mxCell>
        <mxCell id="Om9Eq3zTbw2IkhIUX69M-24" value="&lt;font style=&quot;font-size: 16px;&quot;&gt;&lt;b&gt;1&lt;/b&gt;&lt;/font&gt;" style="text;html=1;align=center;verticalAlign=middle;resizable=0;points=[];autosize=1;strokeColor=none;fillColor=none;" parent="1" vertex="1">
          <mxGeometry x="85" y="345" width="30" height="30" as="geometry" />
        </mxCell>
        <mxCell id="Om9Eq3zTbw2IkhIUX69M-25" value="&lt;font style=&quot;font-size: 16px;&quot;&gt;&lt;b&gt;2&lt;/b&gt;&lt;/font&gt;" style="text;html=1;align=center;verticalAlign=middle;resizable=0;points=[];autosize=1;strokeColor=none;fillColor=none;" parent="1" vertex="1">
          <mxGeometry x="405" y="345" width="30" height="30" as="geometry" />
        </mxCell>
        <mxCell id="Om9Eq3zTbw2IkhIUX69M-26" value="&lt;span style=&quot;font-size: 16px;&quot;&gt;&lt;b&gt;3&lt;/b&gt;&lt;/span&gt;" style="text;html=1;align=center;verticalAlign=middle;resizable=0;points=[];autosize=1;strokeColor=none;fillColor=none;" parent="1" vertex="1">
          <mxGeometry x="845" y="345" width="30" height="30" as="geometry" />
        </mxCell>
        <mxCell id="j6DvL9ad935IPiVhazTD-1" value="&lt;span style=&quot;text-wrap-mode: wrap; font-weight: normal;&quot;&gt;&lt;font face=&quot;Times New Roman&quot;&gt;PostgreSQL &lt;br&gt;Wire Protocol&lt;/font&gt;&lt;/span&gt;" style="text;html=1;align=center;verticalAlign=middle;resizable=0;points=[];autosize=1;strokeColor=none;fillColor=none;fontStyle=1" vertex="1" parent="1">
          <mxGeometry x="815" y="410" width="90" height="40" as="geometry" />
        </mxCell>
        <mxCell id="j6DvL9ad935IPiVhazTD-3" value="&lt;font face=&quot;Times New Roman&quot; style=&quot;font-size: 16px;&quot;&gt;&lt;i&gt;API Авито&lt;/i&gt;&lt;/font&gt;" style="ellipse;whiteSpace=wrap;html=1;" vertex="1" parent="1">
          <mxGeometry x="580" y="700" width="120" height="80" as="geometry" />
        </mxCell>
        <mxCell id="j6DvL9ad935IPiVhazTD-5" value="&lt;font face=&quot;Times New Roman&quot; style=&quot;font-size: 16px;&quot;&gt;&lt;i&gt;LLM Deepseek&lt;/i&gt;&lt;/font&gt;" style="ellipse;whiteSpace=wrap;html=1;" vertex="1" parent="1">
          <mxGeometry x="580" width="120" height="80" as="geometry" />
        </mxCell>
        <mxCell id="j6DvL9ad935IPiVhazTD-10" style="edgeStyle=orthogonalEdgeStyle;rounded=0;orthogonalLoop=1;jettySize=auto;html=1;exitX=0.5;exitY=1;exitDx=0;exitDy=0;entryX=0.5;entryY=0;entryDx=0;entryDy=0;" edge="1" parent="1" source="j6DvL9ad935IPiVhazTD-8" target="j6DvL9ad935IPiVhazTD-3">
          <mxGeometry relative="1" as="geometry" />
        </mxCell>
        <mxCell id="j6DvL9ad935IPiVhazTD-15" style="edgeStyle=orthogonalEdgeStyle;rounded=0;orthogonalLoop=1;jettySize=auto;html=1;entryX=0.5;entryY=1;entryDx=0;entryDy=0;" edge="1" parent="1" source="j6DvL9ad935IPiVhazTD-8" target="Om9Eq3zTbw2IkhIUX69M-15">
          <mxGeometry relative="1" as="geometry" />
        </mxCell>
        <mxCell id="j6DvL9ad935IPiVhazTD-8" value="&lt;font style=&quot;&quot;&gt;HTTP&lt;/font&gt;" style="rounded=1;whiteSpace=wrap;html=1;align=center;verticalAlign=middle;" vertex="1" parent="1">
          <mxGeometry x="610" y="630" width="60" height="20" as="geometry" />
        </mxCell>
        <mxCell id="j6DvL9ad935IPiVhazTD-13" style="edgeStyle=orthogonalEdgeStyle;rounded=0;orthogonalLoop=1;jettySize=auto;html=1;entryX=0.5;entryY=0;entryDx=0;entryDy=0;" edge="1" parent="1" source="j6DvL9ad935IPiVhazTD-12" target="Om9Eq3zTbw2IkhIUX69M-15">
          <mxGeometry relative="1" as="geometry" />
        </mxCell>
        <mxCell id="j6DvL9ad935IPiVhazTD-14" style="edgeStyle=orthogonalEdgeStyle;rounded=0;orthogonalLoop=1;jettySize=auto;html=1;entryX=0.5;entryY=1;entryDx=0;entryDy=0;" edge="1" parent="1" source="j6DvL9ad935IPiVhazTD-12" target="j6DvL9ad935IPiVhazTD-5">
          <mxGeometry relative="1" as="geometry" />
        </mxCell>
        <mxCell id="j6DvL9ad935IPiVhazTD-12" value="&lt;font style=&quot;&quot;&gt;HTTP&lt;/font&gt;" style="rounded=1;whiteSpace=wrap;html=1;align=center;verticalAlign=middle;" vertex="1" parent="1">
          <mxGeometry x="610" y="130" width="60" height="20" as="geometry" />
        </mxCell>
      </root>
    </mxGraphModel>
  </diagram>
</mxfile>
